<svg xmlns="http://www.w3.org/2000/svg" viewBox="0 0 46.01 87.24"><title>FJ icon</title><g id="Layer_2" data-name="Layer 2"><g id="Layer_1-2" data-name="Layer 1"><path d="M45.35,24.87,33.55,27.5H23.76V14.67c0-5.38,2.36-13,9.13-14V0c-12.52.92-22,7.7-22,19.8v7.64L0,31.71v.82H10.83v39.4l12.93-6.7V32.53h9c0,.42,0,.89,0,1.45V67.12C32.76,79.54,43,91,29.11,79.37c-6.54-5.46-10.85,7.87-.49,7.87C43.11,87.24,46,74.49,46,63.81V24.87Z"/><path d="M39.06,18a6.64,6.64,0,0,0,6.51-6.73,6.52,6.52,0,0,0-6.51-6.51,6.61,6.61,0,0,0-6.62,6.51A6.73,6.73,0,0,0,39.06,18Z"/></g></g></svg>